<?xml version="1.0" encoding="UTF-8"?>
<svg id="Layer_1" xmlns="http://www.w3.org/2000/svg" version="1.1" viewBox="0 0 1913.8 496.5">
  <!-- Generator: Adobe Illustrator 29.8.4, SVG Export Plug-In . SVG Version: 2.1.1 Build 6)  -->
  <defs>
    <style>
      .st0 {
        fill: #969697;
      }

      .st1 {
        fill: #a9a9aa;
      }

      .st2 {
        fill: #fff;
      }

      .st3 {
        fill: #d0d1d2;
      }

      .st4 {
        fill: #bcbdbe;
      }

      .st5 {
        fill: #828383;
      }

      .st6 {
        fill: #ff6b35;
      }
    </style>
  </defs>
  <path class="st2" d="M731.1,172.3c10.2,5.2,18.1,11.7,23.8,19.5v-24.6h35.4v172.3c0,15.6-3.3,29.5-9.8,41.7-6.6,12.2-16.1,21.8-28.5,28.8s-27.2,10.5-44.5,10.5-42.1-5.4-57.2-16.2c-15.2-10.8-23.8-25.4-25.8-43.8h34.8c2.7,8.8,8.4,15.9,17.1,21.4,8.7,5.4,19.1,8.2,31.2,8.2s25.6-4.3,34.3-12.9,13.1-21.1,13.1-37.5v-28.3c-6,8-14,14.7-24.2,20.2-10.2,5.4-21.7,8.2-34.6,8.2s-28.3-3.7-40.5-11.2-21.8-17.9-28.9-31.4c-7.1-13.4-10.6-28.7-10.6-45.7s3.5-32.1,10.6-45.2,16.7-23.3,28.9-30.6,25.7-10.9,40.5-10.9,24.8,2.6,34.9,7.8v-.3ZM747.7,221.3c-4.8-8.6-11.1-15.2-18.9-19.7-7.8-4.5-16.2-6.8-25.2-6.8s-17.4,2.2-25.2,6.6c-7.8,4.4-14.1,10.9-18.9,19.4-4.8,8.5-7.2,18.6-7.2,30.3s2.4,22,7.2,30.8,11.2,15.5,19.1,20.2c7.9,4.6,16.3,6.9,25.1,6.9s17.4-2.3,25.2-6.8,14.1-11.1,18.9-19.8c4.8-8.7,7.2-18.9,7.2-30.6s-2.4-21.8-7.2-30.5h0Z"/>
  <path class="st6" d="M826.8,206c7.1-13.1,16.7-23.3,28.9-30.6s25.7-10.9,40.5-10.9,25,2.6,34.9,7.8,17.9,11.7,23.8,19.5v-24.6h35.4v169.5h-35.4v-25.2c-6,8-14.1,14.7-24.3,20-10.3,5.3-22,8-35.1,8s-27.9-3.7-40-11.2-21.7-17.9-28.8-31.4c-7.1-13.4-10.6-28.7-10.6-45.7s3.5-32.1,10.6-45.2h0ZM947.7,221.3c-4.8-8.6-11.1-15.2-18.9-19.7-7.8-4.5-16.2-6.8-25.2-6.8s-17.4,2.2-25.2,6.6c-7.8,4.4-14.1,10.9-18.9,19.4-4.8,8.5-7.2,18.6-7.2,30.3s2.4,22,7.2,30.8,11.2,15.5,19.1,20.2c7.9,4.6,16.3,6.9,25.1,6.9s17.4-2.3,25.2-6.8,14.1-11.1,18.9-19.8c4.8-8.7,7.2-18.9,7.2-30.6s-2.4-21.8-7.2-30.5h0Z"/>
  <path class="st6" d="M1058.7,167.2v169.5h-35.1v-169.5h35.1Z"/>
  <path class="st2" d="M1215.8,172.7c10.6,5.5,18.8,13.7,24.8,24.6,5.9,10.9,8.9,24,8.9,39.4v100h-34.8v-94.8c0-15.2-3.8-26.8-11.4-34.9s-18-12.2-31.1-12.2-23.5,4.1-31.2,12.2c-7.7,8.1-11.5,19.7-11.5,34.9v94.8h-35.1v-169.5h35.1v19.4c5.7-7,13.1-12.4,22-16.3,8.9-3.9,18.4-5.8,28.5-5.8s25.3,2.8,35.8,8.3h0Z"/>
  <path class="st2" d="M1284.9,206c7.1-13.1,16.7-23.3,28.9-30.6,12.2-7.3,25.7-10.9,40.5-10.9s25,2.6,34.9,7.8,17.9,11.7,23.8,19.5v-24.6h35.4v169.5h-35.4v-25.2c-6,8-14.1,14.7-24.3,20-10.3,5.3-22,8-35.1,8s-27.9-3.7-40-11.2-21.7-17.9-28.8-31.4c-7.1-13.4-10.6-28.7-10.6-45.7s3.5-32.1,10.6-45.2h0ZM1405.8,221.3c-4.8-8.6-11.1-15.2-18.9-19.7s-16.2-6.8-25.2-6.8-17.4,2.2-25.2,6.6c-7.8,4.4-14.1,10.9-18.9,19.4s-7.2,18.6-7.2,30.3,2.4,22,7.2,30.8c4.8,8.8,11.2,15.5,19.1,20.2,7.9,4.6,16.3,6.9,25.1,6.9s17.4-2.3,25.2-6.8c7.8-4.5,14.1-11.1,18.9-19.8,4.8-8.7,7.2-18.9,7.2-30.6s-2.4-21.8-7.2-30.5h0Z"/>
  <path class="st2" d="M1542.8,172.3c10.4-5.2,21.9-7.8,34.6-7.8s28.5,3.6,40.6,10.8,21.6,17.4,28.6,30.6c7,13.2,10.5,28.4,10.5,45.4s-3.5,32.3-10.5,45.7c-7,13.4-16.6,23.9-28.8,31.4-12.2,7.5-25.7,11.2-40.5,11.2s-24.8-2.6-34.9-7.7c-10.2-5.1-18.2-11.7-24.2-19.7v24.6h-35.1V109h35.1v83.4c5.9-8.2,14.1-14.9,24.5-20.2h.1ZM1614.1,220.9c-4.8-8.5-11.2-15-19.1-19.4s-16.4-6.6-25.4-6.6-17.2,2.3-25.1,6.8-14.3,11.1-19.1,19.7c-4.8,8.6-7.2,18.8-7.2,30.5s2.4,21.9,7.2,30.6c4.8,8.7,11.2,15.3,19.1,19.8s16.3,6.8,25.1,6.8,17.5-2.3,25.4-6.9,14.3-11.3,19.1-20.2c4.8-8.8,7.2-19.1,7.2-30.8s-2.4-21.8-7.2-30.3h0Z"/>
  <path class="st2" d="M1716.9,109v227.7h-35.1V109h35.1Z"/>
  <path class="st2" d="M1910.5,265h-129.5c1,13.5,6,24.4,15.1,32.6,9,8.2,20.1,12.3,33.2,12.3,18.9,0,32.2-7.9,40-23.7h37.8c-5.1,15.6-14.4,28.4-27.8,38.3-13.4,10-30.1,14.9-50,14.9s-30.7-3.6-43.5-10.9-22.9-17.5-30.2-30.8c-7.3-13.2-10.9-28.6-10.9-46s3.5-32.8,10.6-46,17-23.4,29.8-30.6c12.8-7.2,27.5-10.8,44.2-10.8s30.3,3.5,42.8,10.5,22.3,16.8,29.2,29.4c7,12.6,10.5,27.1,10.5,43.5s-.4,12.1-1.2,17.2h0ZM1875.2,236.7c-.2-12.9-4.8-23.3-13.8-31.1s-20.2-11.7-33.5-11.7-22.5,3.8-31.1,11.5-13.7,18.1-15.4,31.2h93.8Z"/>
  <circle class="st3" cx="43.1" cy="45.8" r="20.1"/>
  <circle class="st4" cx="145.4" cy="45.8" r="20.1"/>
  <circle class="st1" cx="247.8" cy="45.8" r="20.1" transform="translate(143.3 275.1) rotate(-76)"/>
  <circle class="st4" cx="350.1" cy="45.8" r="20.1"/>
  <circle class="st3" cx="452.4" cy="45.8" r="20.1"/>
  <circle class="st4" cx="42" cy="147.1" r="20.1"/>
  <circle class="st0" cx="144.3" cy="147.1" r="22.5"/>
  <circle class="st5" cx="246.6" cy="147.1" r="25"/>
  <circle class="st0" cx="348.9" cy="147.1" r="22.5"/>
  <circle class="st4" cx="451.2" cy="147.1" r="20.1"/>
  <circle class="st1" cx="42" cy="250" r="20.1"/>
  <circle class="st5" cx="144.3" cy="250" r="25"/>
  <circle class="st6" cx="246.6" cy="250" r="35"/>
  <circle class="st5" cx="348.9" cy="250" r="25"/>
  <circle class="st1" cx="451.2" cy="250" r="20.1"/>
  <circle class="st4" cx="42" cy="352.9" r="20.1"/>
  <circle class="st0" cx="144.3" cy="352.9" r="22.5"/>
  <circle class="st5" cx="246.6" cy="352.9" r="25"/>
  <circle class="st0" cx="348.9" cy="352.9" r="22.5"/>
  <circle class="st4" cx="451.2" cy="352.9" r="20.1"/>
  <circle class="st3" cx="42" cy="455.8" r="20.1"/>
  <circle class="st4" cx="144.3" cy="455.8" r="20.1"/>
  <circle class="st1" cx="246.6" cy="455.8" r="20.1"/>
  <circle class="st4" cx="348.9" cy="455.8" r="20.1"/>
  <circle class="st3" cx="451.2" cy="455.8" r="20.1"/>
</svg>