<?xml version="1.0" encoding="UTF-8"?>
<svg id="Layer_1" xmlns="http://www.w3.org/2000/svg" version="1.1" viewBox="0 0 2330.8 496.5">
  <!-- Generator: Adobe Illustrator 29.8.4, SVG Export Plug-In . SVG Version: 2.1.1 Build 6)  -->
  <defs>
    <style>
      .st0 {
        fill: #969697;
      }

      .st1 {
        fill: #a9a9aa;
      }

      .st2 {
        fill: #d0d1d2;
      }

      .st3 {
        fill: #bcbdbe;
      }

      .st4 {
        fill: #828383;
      }

      .st5 {
        fill: #ff6b35;
      }
    </style>
  </defs>
  <g>
    <path d="M726.4,118.1c13.7,7,24.3,15.7,32,26.2v-33h47.5v231.4c0,21-4.4,39.6-13.2,56-8.9,16.4-21.6,29.3-38.3,38.7-16.7,9.4-36.5,14.1-59.8,14.1s-56.5-7.3-76.8-21.8c-20.4-14.5-32-34.1-34.7-58.8h46.7c3.6,11.8,11.3,21.4,23,28.7,11.7,7.3,25.7,11,41.9,11s34.4-5.8,46.1-17.3c11.7-11.6,17.6-28.3,17.6-50.4v-38c-8.1,10.7-18.8,19.7-32.5,27.1-13.7,7.3-29.1,11-46.5,11s-38-5-54.4-15c-16.4-10.1-29.3-24-38.8-42.2-9.5-18-14.2-38.5-14.2-61.4s4.7-43.1,14.2-60.7c9.5-17.6,22.4-31.3,38.8-41.1s34.5-14.6,54.4-14.6,33.3,3.5,46.9,10.5v-.4ZM748.7,183.9c-6.4-11.6-14.9-20.4-25.4-26.5-10.5-6-21.8-9.1-33.8-9.1s-23.4,3-33.8,8.9c-10.5,5.9-18.9,14.6-25.4,26.1-6.4,11.4-9.7,25-9.7,40.7s3.2,29.5,9.7,41.4,15,20.8,25.7,27.1c10.6,6.2,21.9,9.3,33.7,9.3s23.4-3.1,33.8-9.1c10.5-6,18.9-14.9,25.4-26.6,6.4-11.7,9.7-25.4,9.7-41.1s-3.2-29.3-9.7-41h-.1Z"/>
    <path class="st5" d="M855,163.3c9.5-17.6,22.4-31.3,38.8-41.1,16.4-9.8,34.5-14.6,54.4-14.6s33.6,3.5,46.9,10.5c13.3,7,24,15.7,32,26.2v-33h47.5v227.6h-47.5v-33.8c-8.1,10.7-18.9,19.7-32.6,26.9-13.8,7.1-29.5,10.7-47.1,10.7s-37.5-5-53.7-15c-16.3-10.1-29.1-24-38.7-42.2-9.5-18-14.2-38.5-14.2-61.4s4.7-43.1,14.2-60.7h.1ZM1017.3,183.9c-6.4-11.6-14.9-20.4-25.4-26.5-10.5-6-21.8-9.1-33.8-9.1s-23.4,3-33.8,8.9c-10.5,5.9-18.9,14.6-25.4,26.1-6.4,11.4-9.7,25-9.7,40.7s3.2,29.5,9.7,41.4c6.4,11.8,15,20.8,25.7,27.1,10.6,6.2,21.9,9.3,33.7,9.3s23.4-3.1,33.8-9.1c10.5-6,18.9-14.9,25.4-26.6,6.4-11.7,9.7-25.4,9.7-41.1s-3.2-29.3-9.7-41h-.1Z"/>
    <path class="st5" d="M1166.4,111.2v227.6h-47.1V111.2h47.1Z"/>
    <path d="M1377.4,118.6c14.2,7.4,25.2,18.4,33.3,33,7.9,14.6,12,32.2,12,52.9v134.3h-46.7v-127.3c0-20.4-5.1-36-15.3-46.9-10.2-10.9-24.2-16.4-41.8-16.4s-31.6,5.5-41.9,16.4c-10.3,10.9-15.4,26.5-15.4,46.9v127.3h-47.1V111.2h47.1v26.1c7.7-9.4,17.6-16.7,29.5-21.9,12-5.2,24.7-7.8,38.3-7.8s34,3.8,48.1,11.1h0Z"/>
    <path d="M1470.2,163.3c9.5-17.6,22.4-31.3,38.8-41.1,16.4-9.8,34.5-14.6,54.4-14.6s33.6,3.5,46.9,10.5c13.3,7,24,15.7,32,26.2v-33h47.5v227.6h-47.5v-33.8c-8.1,10.7-18.9,19.7-32.6,26.9-13.8,7.1-29.5,10.7-47.1,10.7s-37.5-5-53.7-15c-16.3-10.1-29.1-24-38.7-42.2-9.5-18-14.2-38.5-14.2-61.4s4.7-43.1,14.2-60.7h.1ZM1632.6,183.9c-6.4-11.6-14.9-20.4-25.4-26.5-10.5-6-21.8-9.1-33.8-9.1s-23.4,3-33.8,8.9c-10.5,5.9-18.9,14.6-25.4,26.1-6.4,11.4-9.7,25-9.7,40.7s3.2,29.5,9.7,41.4c6.4,11.8,15,20.8,25.7,27.1,10.6,6.2,21.9,9.3,33.7,9.3s23.4-3.1,33.8-9.1c10.5-6,18.9-14.9,25.4-26.6,6.4-11.7,9.7-25.4,9.7-41.1s-3.2-29.3-9.7-41h-.1Z"/>
    <path d="M1816.6,118.1c14-7,29.4-10.5,46.5-10.5s38.3,4.8,54.5,14.5c16.3,9.7,29,23.4,38.4,41.1,9.4,17.7,14.1,38.1,14.1,61s-4.7,43.4-14.1,61.4c-9.4,18-22.3,32.1-38.7,42.2-16.4,10.1-34.5,15-54.4,15s-33.3-3.5-46.9-10.3c-13.7-6.8-24.4-15.7-32.5-26.5v33h-47.1V33.1h47.1v112c7.9-11,18.9-20,32.9-27.1h.1ZM1912.3,183.4c-6.4-11.4-15-20.1-25.7-26.1s-22-8.9-34.1-8.9-23.1,3.1-33.7,9.1-19.2,14.9-25.7,26.5c-6.4,11.6-9.7,25.2-9.7,41s3.2,29.4,9.7,41.1c6.4,11.7,15,20.5,25.7,26.6,10.6,6,21.9,9.1,33.7,9.1s23.5-3.1,34.1-9.3c10.6-6.2,19.2-15.2,25.7-27.1,6.4-11.8,9.7-25.7,9.7-41.4s-3.2-29.3-9.7-40.7h0Z"/>
    <path d="M2050.4,33.1v305.8h-47.1V33.1h47.1Z"/>
    <path d="M2310.4,242.6h-173.9c1.3,18.1,8.1,32.8,20.3,43.8,12.1,11,27,16.5,44.6,16.5,25.4,0,43.2-10.6,53.7-31.8h50.8c-6.8,21-19.3,38.1-37.3,51.4-18,13.4-40.4,20-67.2,20s-41.2-4.8-58.4-14.6c-17.2-9.8-30.8-23.5-40.6-41.4-9.8-17.7-14.6-38.4-14.6-61.8s4.7-44.1,14.2-61.8c9.5-17.7,22.8-31.4,40-41.1,17.2-9.7,36.9-14.5,59.4-14.5s40.7,4.7,57.5,14.1c16.8,9.4,29.9,22.6,39.2,39.5,9.4,16.9,14.1,36.4,14.1,58.4s-.5,16.3-1.6,23.1h-.1ZM2263,204.6c-.3-17.3-6.4-31.3-18.5-41.8-12.1-10.5-27.1-15.7-45-15.7s-30.2,5.1-41.8,15.4c-11.6,10.3-18.4,24.3-20.7,41.9h126Z"/>
  </g>
  <circle class="st2" cx="40.1" cy="39.8" r="20.1"/>
  <circle class="st3" cx="142.4" cy="39.8" r="20.1"/>
  <circle class="st1" cx="244.8" cy="39.8" r="20.1" transform="translate(146.8 267.6) rotate(-76)"/>
  <circle class="st3" cx="347.1" cy="39.8" r="20.1"/>
  <circle class="st2" cx="449.4" cy="39.8" r="20.1"/>
  <circle class="st3" cx="39" cy="141.1" r="20.1"/>
  <circle class="st0" cx="141.3" cy="141.1" r="22.5"/>
  <circle class="st4" cx="243.6" cy="141.1" r="25"/>
  <circle class="st0" cx="345.9" cy="141.1" r="22.5"/>
  <circle class="st3" cx="448.2" cy="141.1" r="20.1"/>
  <circle class="st1" cx="39" cy="244" r="20.1"/>
  <circle class="st4" cx="141.3" cy="244" r="25"/>
  <circle class="st5" cx="243.6" cy="244" r="35"/>
  <circle class="st4" cx="345.9" cy="244" r="25"/>
  <circle class="st1" cx="448.2" cy="244" r="20.1"/>
  <circle class="st3" cx="39" cy="346.9" r="20.1"/>
  <circle class="st0" cx="141.3" cy="346.9" r="22.5"/>
  <circle class="st4" cx="243.6" cy="346.9" r="25"/>
  <circle class="st0" cx="345.9" cy="346.9" r="22.5"/>
  <circle class="st3" cx="448.2" cy="346.9" r="20.1"/>
  <circle class="st2" cx="39" cy="449.8" r="20.1"/>
  <circle class="st3" cx="141.3" cy="449.8" r="20.1"/>
  <circle class="st1" cx="243.6" cy="449.8" r="20.1"/>
  <circle class="st3" cx="345.9" cy="449.8" r="20.1"/>
  <circle class="st2" cx="448.2" cy="449.8" r="20.1"/>
</svg>